# xmcd CD database file
#
# Track frame offsets:
#	150
#	21787
#	44175
#
# Disc length: 875 seconds
#
# Revision: 1
# Processed by: cddbd v1.5.2PL0 Copyright (c) Steve Scherf et al.
# Submitted via: CDex 1.70beta2
#
DISCID=23036903
DTITLE=森川美穂 - 99 Generation
DYEAR=1996
DGENRE=JPop
TTITLE0=99 Generation
TTITLE1=生まれたての想い
TTITLE2=99 Generation(オリジナルカラオケ) 
EXTD=YEAR: 1996
EXTT0=
EXTT1=
EXTT2=
PLAYORDER=
